<svg viewBox="0 0 400 400" xmlns="http://www.w3.org/2000/svg">
  <defs>
    <linearGradient id="bg2" x1="0" y1="0" x2="1" y2="1">
      <stop offset="0%" stop-color="#f8ecd8"/>
      <stop offset="100%" stop-color="#f3dcb8"/>
    </linearGradient>
    <linearGradient id="loaf" x1="0" y1="0" x2="0" y2="1">
      <stop offset="0%" stop-color="#d99752"/>
      <stop offset="100%" stop-color="#a85a2c"/>
    </linearGradient>
  </defs>
  <rect width="400" height="400" fill="url(#bg2)"/>
  <ellipse cx="200" cy="300" rx="130" ry="18" fill="#2b1d16" opacity="0.08"/>
  <g transform="translate(200,215)">
    <path d="M -130 20
             C -140 -50 -90 -95 0 -95
             C 90 -95 140 -50 130 20
             C 130 65 90 85 0 85
             C -90 85 -130 65 -130 20 Z"
          fill="url(#loaf)" stroke="#8a4820" stroke-width="4"/>
    <path d="M -70 -70 C -75 0 -65 60 -55 80" fill="none" stroke="#8a4820" stroke-width="4" stroke-linecap="round" opacity="0.55"/>
    <path d="M -10 -85 C -15 0 -5 65 5 88" fill="none" stroke="#8a4820" stroke-width="4" stroke-linecap="round" opacity="0.55"/>
    <path d="M 55 -75 C 60 0 55 60 50 82" fill="none" stroke="#8a4820" stroke-width="4" stroke-linecap="round" opacity="0.55"/>
    <path d="M -110 -30 C -60 -75 60 -75 110 -30" fill="none" stroke="#f0d09a" stroke-width="6" stroke-linecap="round" opacity="0.6"/>
  </g>
</svg>